# Blender 4.0.2
# www.blender.org
mtllib A.mtl
o A
v 55.410213 -66.982246 0.518455
v 87.864944 -66.982246 0.518455
v 71.637581 -61.702244 0.518455
v 67.550896 -34.527515 0.518453
v 75.724274 -34.527515 0.518453
v 71.637596 -33.872070 0.518453
v 61.480553 -50.754871 0.518454
v 81.794617 -50.754871 0.518454
v 71.637581 -47.787151 0.518454
vn -0.0000 -0.0000 1.0000
vt 0.500000 0.500000
vt 1.000000 0.500000
vt 1.000000 1.000000
vt 0.500000 1.000000
vt 0.000000 0.500000
vt 0.000000 1.000000
vt 0.000000 0.000000
vt 0.500000 0.000000
vt 1.000000 0.000000
s 0
f 9/1/1 8/2/1 5/3/1 6/4/1
f 7/5/1 9/1/1 6/4/1 4/6/1
f 1/7/1 3/8/1 9/1/1 7/5/1
f 3/8/1 2/9/1 8/2/1 9/1/1
