# Blender 4.0.2
# www.blender.org
mtllib B.mtl
o B
v 50.714741 -65.863640 0.647741
v 35.004875 -65.863640 0.647741
v 50.714741 -33.801331 0.647742
v 35.004875 -33.801331 0.647742
v 51.894421 -41.816910 0.647742
v 51.894421 -49.832481 0.647741
v 51.894421 -57.848061 0.647741
v 29.408976 -57.848061 0.647741
v 35.004875 -49.832497 0.647741
v 29.408976 -41.816910 0.647742
vn -0.0000 -0.0000 -1.0000
vt 0.000000 0.750000
vt 1.000000 0.750000
vt 1.000000 1.000000
vt 0.000000 1.000000
vt 0.000000 0.000000
vt 1.000000 0.000000
vt 1.000000 0.250000
vt 0.000000 0.250000
vt 1.000000 0.500000
vt 0.000000 0.500000
s 0
f 5/1/1 10/2/1 4/3/1 3/4/1
f 1/5/1 2/6/1 8/7/1 7/8/1
f 7/8/1 8/7/1 9/9/1 6/10/1
f 6/10/1 9/9/1 10/2/1 5/1/1
