# Blender 4.0.2
# www.blender.org
mtllib C.mtl
o C
v -56.271038 -41.442398 0.000029
v -49.573891 -43.665619 0.000028
v -47.350651 -48.456055 0.000028
v -49.573891 -53.246468 0.000028
v -56.271038 -55.469696 0.000028
v -60.594013 -28.780724 0.000030
v -44.326717 -31.383713 0.000029
v -37.215130 -38.495369 0.000029
v -34.612072 -48.210014 0.000028
v -37.215130 -57.924683 0.000028
v -44.326717 -65.036316 0.000027
v -60.594013 -67.639313 0.000027
vn -0.0000 -0.0000 1.0000
vt 0.000000 0.000000
s 0
f 4/1/1 5/1/1 12/1/1 11/1/1
f 3/1/1 4/1/1 10/1/1 9/1/1
f 2/1/1 8/1/1 7/1/1
f 4/1/1 11/1/1 10/1/1
f 2/1/1 3/1/1 9/1/1 8/1/1
f 1/1/1 2/1/1 7/1/1 6/1/1
