# Blender 4.0.2
# www.blender.org
mtllib X.mtl
o X
v 60.906288 30.314049 -1.763866
v 68.875542 38.283329 -1.763865
v 38.010921 69.147957 -1.763867
v 30.041655 61.178684 -1.763867
v 30.041655 38.283333 -1.763868
v 38.010921 30.314049 -1.763868
v 68.875542 61.178677 -1.763864
v 60.906288 69.147949 -1.763864
v 49.458599 42.041759 -1.763866
v 41.769360 49.731003 -1.763867
v 57.147846 49.731003 -1.763865
v 49.458599 57.420246 -1.763866
vn -0.0000 -0.0000 1.0000
vt 0.333333 0.666667
vt 0.666667 0.666667
vt 0.666667 1.000000
vt 0.333333 1.000000
vt 0.333333 0.000000
vt 0.666667 0.000000
vt 0.666667 0.333333
vt 0.333333 0.333333
vt 0.000000 0.333333
vt 0.000000 0.666667
vt 1.000000 0.333333
vt 1.000000 0.666667
s 0
f 10/1/1 12/2/1 3/3/1 4/4/1
f 1/5/1 2/6/1 11/7/1 9/8/1
f 9/8/1 11/7/1 12/2/1 10/1/1
f 6/9/1 9/8/1 10/1/1 5/10/1
f 11/7/1 7/11/1 8/12/1 12/2/1
